HIERARCHY
ROOT joint_Root
{
	OFFSET 0.0 0.0 0.0
	CHANNELS 6 Xposition Yposition Zposition Zrotation Xrotation Yrotation 
	JOINT Hips
	{
		OFFSET 4.5925 91.4895 -427.239
		CHANNELS 6 Xposition Yposition Zposition Zrotation Xrotation Yrotation 
		JOINT Spine
		{
			OFFSET 15.7357 0.0 0.0
			CHANNELS 6 Xposition Yposition Zposition Zrotation Xrotation Yrotation 
			JOINT Chest
			{
				OFFSET 8.98455 -0.406207 0.0
				CHANNELS 6 Xposition Yposition Zposition Zrotation Xrotation Yrotation 
				JOINT Neck
				{
					OFFSET 16.3773 0.0 0.0
					CHANNELS 6 Xposition Yposition Zposition Zrotation Xrotation Yrotation 
					JOINT Head
					{
						OFFSET 6.45672 0.0 0.0
						CHANNELS 6 Xposition Yposition Zposition Zrotation Xrotation Yrotation 
						End Site
						{
							OFFSET 0.0 0.0 0.0
						}
					}
				}
				JOINT Shoulder_L
				{
					OFFSET 12.9942 -0.242716 4.98039
					CHANNELS 6 Xposition Yposition Zposition Zrotation Xrotation Yrotation 
					JOINT UpperArm_L
					{
						OFFSET 5.34809 0.0 0.0
						CHANNELS 6 Xposition Yposition Zposition Zrotation Xrotation Yrotation 
						JOINT LowerArm_L
						{
							OFFSET 24.3286 1.87007e-05 0.0
							CHANNELS 6 Xposition Yposition Zposition Zrotation Xrotation Yrotation 
							JOINT Hand_L
							{
								OFFSET 22.2916 0.0 0.0
								CHANNELS 6 Xposition Yposition Zposition Zrotation Xrotation Yrotation 
								End Site
								{
									OFFSET 0.0 0.0 0.0
								}
							}
						}
					}
				}
				JOINT Shoulder_R
				{
					OFFSET 12.9945 -0.242716 -4.98039
					CHANNELS 6 Xposition Yposition Zposition Zrotation Xrotation Yrotation 
					JOINT UpperArm_R
					{
						OFFSET -5.34813 0.0 0.0
						CHANNELS 6 Xposition Yposition Zposition Zrotation Xrotation Yrotation 
						JOINT LowerArm_R
						{
							OFFSET -24.3289 0.000322201 0.0
							CHANNELS 6 Xposition Yposition Zposition Zrotation Xrotation Yrotation 
							JOINT Hand_R
							{
								OFFSET -22.2915 -0.000108084 0.0
								CHANNELS 6 Xposition Yposition Zposition Zrotation Xrotation Yrotation 
								End Site
								{
									OFFSET 0.0 0.0 0.0
								}
							}
						}
					}
				}
			}
		}
		JOINT UpperLeg_L
		{
			OFFSET -2.19248 -6.46944 0.0
			CHANNELS 6 Xposition Yposition Zposition Zrotation Xrotation Yrotation 
			JOINT LowerLeg_L
			{
				OFFSET 39.0811 0.0 -1.23785e-05
				CHANNELS 6 Xposition Yposition Zposition Zrotation Xrotation Yrotation 
				JOINT Foot_L
				{
					OFFSET 40.9854 0.0 -1.26872e-05
					CHANNELS 6 Xposition Yposition Zposition Zrotation Xrotation Yrotation 
					JOINT Toes_L
					{
						OFFSET 11.7543 0.0 0.0
						CHANNELS 6 Xposition Yposition Zposition Zrotation Xrotation Yrotation 
						End Site
						{
							OFFSET 0.0 0.0 0.0
						}
					}
				}
			}
		}
		JOINT UpperLeg_R
		{
			OFFSET -2.19251 6.46944 0.0
			CHANNELS 6 Xposition Yposition Zposition Zrotation Xrotation Yrotation 
			JOINT LowerLeg_R
			{
				OFFSET -39.0811 -0.00228153 -0.0401928
				CHANNELS 6 Xposition Yposition Zposition Zrotation Xrotation Yrotation 
				JOINT Foot_R
				{
					OFFSET -40.9854 0.0 0.0
					CHANNELS 6 Xposition Yposition Zposition Zrotation Xrotation Yrotation 
					JOINT Toes_R
					{
						OFFSET -11.7543 0.0 0.0
						CHANNELS 6 Xposition Yposition Zposition Zrotation Xrotation Yrotation 
						End Site
						{
							OFFSET 0.0 0.0 0.0
						}
					}
				}
			}
		}
	}
}
MOTION
Frames:	9
Frame Time:	0.0333333
0.000000 0.000000 0.000000 0.000000 0.000000 -0.000000 -2.109270 89.962200 -2.036470 89.046000 -2.967650 14.326800 15.735700 0.000005 -0.000001 90.461900 77.375200 -90.352800 8.984550 -0.406207 -0.000000 17.482700 0.209236 0.186466 16.377300 -0.000001 -0.000001 6.008340 -2.948210 0.708142 6.456720 -0.000001 -0.000000 -1.764880 -2.219810 0.825591 12.994200 -0.242716 4.980390 -91.407000 6.953480 -78.531800 5.348090 -0.000007 -0.000001 -56.151500 35.699600 -28.148500 24.328600 0.000019 0.000005 8.544400 20.634500 -23.090100 22.291600 -0.000001 0.000005 9.860500 5.187550 3.029530 12.994500 -0.242716 -4.980390 89.125000 11.110300 -85.468500 -5.348130 -0.000001 -0.000004 -56.788000 36.357600 -22.852200 -24.328900 0.000322 -0.000009 1.059400 2.999420 -19.481400 -22.291500 -0.000108 -0.000004 15.078800 5.416970 -3.497330 -2.192480 -6.469440 -0.000000 -171.541000 -13.585300 0.718057 39.081100 -0.000007 -0.000012 -0.260347 0.365370 35.472500 40.985400 -0.000006 -0.000013 -0.797094 5.533950 -71.017800 11.754300 -0.000000 0.000003 -0.000164 -0.001568 -16.637000 -2.192510 6.469440 -0.000001 174.158000 20.579200 -177.623000 -39.081100 -0.002282 -0.040193 -0.237535 0.348545 34.642800 -40.985400 0.000008 0.000006 5.004140 12.511100 -72.392500 -11.754300 -0.000006 -0.000006 -0.001675 -0.024571 -17.572200
0.000000 0.000000 0.000000 0.000000 0.000000 -0.000000 -2.117060 89.956600 -2.053980 89.042400 -2.911910 14.380000 15.735700 0.000005 -0.000001 90.463000 77.344300 -90.342600 8.984550 -0.406207 -0.000000 17.544400 0.211189 0.208662 16.377300 -0.000001 -0.000001 6.088230 -2.969790 0.786009 6.456720 -0.000001 -0.000000 -1.900790 -2.272470 1.006070 12.994200 -0.242716 4.980390 -91.402300 6.934960 -78.539500 5.348090 -0.000007 -0.000001 -56.077000 34.753600 -28.079700 24.328600 0.000019 0.000005 8.932050 20.471600 -24.198100 22.291600 -0.000001 0.000005 10.057600 5.189960 2.969680 12.994500 -0.242716 -4.980390 89.125500 11.081400 -85.459300 -5.348130 -0.000001 -0.000004 -56.751900 36.380300 -22.848700 -24.328900 0.000322 -0.000009 1.068930 3.034940 -19.430900 -22.291500 -0.000108 -0.000004 15.054200 5.416750 -3.490010 -2.192480 -6.469440 -0.000000 -171.521000 -13.594100 0.731220 39.081100 -0.000007 -0.000012 -0.257755 0.361268 35.507300 40.985400 -0.000006 -0.000013 -0.785431 5.568260 -71.011900 11.754300 -0.000000 0.000003 -0.000158 -0.001518 -16.635200 -2.192510 6.469440 -0.000001 174.142000 20.625200 -177.579000 -39.081100 -0.002282 -0.040193 -0.237906 0.348840 34.661400 -40.985400 0.000008 0.000006 4.964460 12.492800 -72.384300 -11.754300 -0.000006 -0.000006 -0.001628 -0.023962 -17.547500
0.000000 0.000000 0.000000 0.000000 0.000000 -0.000000 -2.121970 89.950700 -2.082210 89.027500 -2.857070 14.402500 15.735700 0.000005 -0.000001 90.465500 77.318500 -90.328300 8.984550 -0.406207 -0.000000 17.595900 0.214129 0.241671 16.377300 -0.000001 -0.000001 6.149190 -3.001140 0.924309 6.456720 -0.000001 -0.000000 -2.027650 -2.301430 1.156680 12.994200 -0.242716 4.980390 -91.405800 6.907530 -78.466800 5.348090 -0.000007 -0.000001 -56.089000 33.436800 -28.005200 24.328600 0.000019 0.000005 9.539360 20.431500 -25.705600 22.291600 -0.000001 0.000005 10.393400 5.191590 2.929240 12.994500 -0.242716 -4.980390 89.126800 11.067400 -85.460400 -5.348130 -0.000001 -0.000004 -56.738500 36.336600 -22.823500 -24.328900 0.000322 -0.000009 1.052430 2.988460 -19.428700 -22.291500 -0.000108 -0.000004 15.057300 5.417410 -3.512060 -2.192480 -6.469440 -0.000000 -171.506000 -13.562200 0.703737 39.081100 -0.000007 -0.000012 -0.257913 0.360928 35.549500 40.985400 -0.000006 -0.000013 -0.769191 5.620760 -71.009700 11.754300 -0.000000 0.000003 -0.000155 -0.001490 -16.634100 -2.192510 6.469440 -0.000001 174.162000 20.608400 -177.582000 -39.081100 -0.002282 -0.040193 -0.238518 0.349500 34.678600 -40.985400 0.000008 0.000006 4.894560 12.447600 -72.360400 -11.754300 -0.000006 -0.000006 -0.001578 -0.023304 -17.520700
0.000000 0.000000 0.000000 0.000000 0.000000 -0.000000 -2.123770 89.946600 -2.112800 89.030300 -2.785050 14.457800 15.735700 0.000005 -0.000001 90.471300 77.279100 -90.323100 8.984550 -0.406207 -0.000000 17.674700 0.218306 0.262947 16.377300 -0.000001 -0.000001 6.232410 -3.044920 1.057280 6.456720 -0.000001 -0.000000 -2.201620 -2.359590 1.394080 12.994200 -0.242716 4.980390 -91.402600 6.836680 -78.377400 5.348090 -0.000007 -0.000001 -56.343700 31.662900 -27.845400 24.328600 0.000019 0.000005 10.241200 20.210400 -27.608500 22.291600 -0.000001 0.000005 10.930400 5.184690 3.100260 12.994500 -0.242716 -4.980390 89.120300 11.077700 -85.431000 -5.348130 -0.000001 -0.000004 -56.690200 36.304000 -22.791000 -24.328900 0.000322 -0.000009 1.053970 2.981910 -19.494400 -22.291500 -0.000108 -0.000004 15.065700 5.416210 -3.471670 -2.192480 -6.469440 -0.000000 -171.506000 -13.527300 0.706511 39.081100 -0.000007 -0.000012 -0.260024 0.363505 35.577500 40.985400 -0.000006 -0.000013 -0.759551 5.640840 -70.991200 11.754300 -0.000000 0.000003 -0.000155 -0.001490 -16.634100 -2.192510 6.469440 -0.000001 174.136000 20.651700 -177.551000 -39.081100 -0.002282 -0.040193 -0.239932 0.351149 34.708700 -40.985400 0.000008 0.000006 4.911860 12.403100 -72.363200 -11.754300 -0.000006 -0.000006 -0.001611 -0.023743 -17.538500
0.000000 0.000000 0.000000 0.000000 0.000000 -0.000000 -2.117130 89.945600 -2.151010 89.050800 -2.720990 14.460300 15.735700 0.000005 -0.000001 90.495900 77.254800 -90.333600 8.984550 -0.406207 -0.000000 17.723100 0.230713 0.289268 16.377300 -0.000001 -0.000001 6.342810 -3.072430 1.193670 6.456720 -0.000001 -0.000000 -2.376640 -2.426450 1.617240 12.994200 -0.242716 4.980390 -91.409000 6.797560 -78.260400 5.348090 -0.000007 -0.000001 -56.610800 29.611800 -27.722600 24.328600 0.000019 0.000005 11.003400 19.743400 -29.924000 22.291600 -0.000001 0.000005 11.299500 5.179990 3.215840 12.994500 -0.242716 -4.980390 89.122600 11.064700 -85.437600 -5.348130 -0.000001 -0.000004 -56.685800 36.194100 -22.751000 -24.328900 0.000322 -0.000009 1.042570 2.944950 -19.523100 -22.291500 -0.000108 -0.000004 15.026900 5.415520 -3.448820 -2.192480 -6.469440 -0.000000 -171.559000 -13.479500 0.662651 39.081100 -0.000007 -0.000012 -0.255301 0.356777 35.587000 40.985400 -0.000006 -0.000013 -0.744303 5.649950 -70.967300 11.754300 -0.000000 0.000003 -0.000162 -0.001549 -16.636300 -2.192510 6.469440 -0.000001 174.110000 20.679300 -177.588000 -39.081100 -0.002282 -0.040193 -0.240470 0.351549 34.737400 -40.985400 0.000008 0.000006 4.914170 12.388100 -72.352500 -11.754300 -0.000006 -0.000006 -0.001618 -0.023834 -17.542300
0.000000 0.000000 0.000000 0.000000 0.000000 -0.000000 -2.120940 89.949700 -2.195590 89.038800 -2.655140 14.458300 15.735700 0.000005 -0.000001 90.566700 77.222300 -90.377900 8.984550 -0.406207 -0.000000 17.787800 0.264683 0.336938 16.377300 -0.000001 -0.000001 6.415350 -3.111840 1.364790 6.456720 -0.000001 -0.000000 -2.562610 -2.502040 1.856460 12.994200 -0.242716 4.980390 -91.404100 6.716740 -78.164300 5.348090 -0.000007 -0.000001 -56.916200 27.341600 -27.686700 24.328600 0.000019 0.000005 12.006300 19.398900 -32.630500 22.291600 -0.000001 0.000005 11.672200 5.180430 3.205010 12.994500 -0.242716 -4.980390 89.120700 11.064900 -85.427600 -5.348130 -0.000001 -0.000004 -56.611100 36.150600 -22.789300 -24.328900 0.000322 -0.000009 1.048620 2.966370 -19.496700 -22.291500 -0.000108 -0.000004 15.004400 5.415240 -3.439350 -2.192480 -6.469440 -0.000000 -171.558000 -13.462400 0.610575 39.081100 -0.000007 -0.000012 -0.256423 0.358298 35.590700 40.985400 -0.000006 -0.000013 -0.729375 5.684360 -70.927100 11.754300 -0.000000 0.000003 -0.000157 -0.001506 -16.634800 -2.192510 6.469440 -0.000001 174.130000 20.755500 -177.610000 -39.081100 -0.002282 -0.040193 -0.234601 0.343082 34.737700 -40.985400 0.000008 0.000006 5.009090 12.352100 -72.350700 -11.754300 -0.000006 -0.000006 -0.001686 -0.024712 -17.578000
0.000000 0.000000 0.000000 0.000000 0.000000 -0.000000 -2.111740 89.951400 -2.242770 89.063700 -2.599590 14.476200 15.735700 0.000005 -0.000001 90.615700 77.186600 -90.413800 8.984550 -0.406207 -0.000000 17.858900 0.288088 0.359301 16.377300 -0.000001 -0.000001 6.491720 -3.110840 1.481370 6.456720 -0.000001 -0.000000 -2.774710 -2.571390 2.199150 12.994200 -0.242716 4.980390 -91.398900 6.614010 -78.029500 5.348090 -0.000007 -0.000001 -56.906600 25.359100 -27.877700 24.328600 0.000019 0.000005 13.321100 19.232500 -35.707900 22.291600 -0.000001 0.000005 12.460200 5.173860 3.366140 12.994500 -0.242716 -4.980390 89.123200 11.078300 -85.446200 -5.348130 -0.000001 -0.000004 -56.575800 36.062200 -22.788000 -24.328900 0.000322 -0.000009 1.061060 3.002100 -19.493600 -22.291500 -0.000108 -0.000004 14.966500 5.414170 -3.403670 -2.192480 -6.469440 -0.000000 -171.588000 -13.462700 0.581994 39.081100 -0.000007 -0.000012 -0.257826 0.360311 35.586700 40.985400 -0.000006 -0.000013 -0.704704 5.736210 -70.883000 11.754300 -0.000000 0.000003 -0.000157 -0.001509 -16.634800 -2.192510 6.469440 -0.000001 174.074000 20.757800 -177.624000 -39.081100 -0.002282 -0.040193 -0.242508 0.354540 34.733500 -40.985400 0.000008 0.000006 4.847370 12.419200 -72.274500 -11.754300 -0.000006 -0.000006 -0.001680 -0.024633 -17.574800
0.000000 0.000000 0.000000 0.000000 0.000000 -0.000000 -2.105160 89.959500 -2.293290 89.074500 -2.526880 14.476800 15.735700 0.000005 -0.000001 90.643600 77.153500 -90.413500 8.984550 -0.406207 -0.000000 17.925000 0.303657 0.413297 16.377300 -0.000001 -0.000001 6.543230 -3.108230 1.624770 6.456720 -0.000001 -0.000000 -2.996190 -2.612320 2.470890 12.994200 -0.242716 4.980390 -91.376000 6.489520 -78.001300 5.348090 -0.000007 -0.000001 -56.944300 23.264200 -28.052600 24.328600 0.000019 0.000005 15.041300 19.247500 -39.184700 22.291600 -0.000001 0.000005 13.046500 5.168530 3.495320 12.994500 -0.242716 -4.980390 89.124700 11.070100 -85.450400 -5.348130 -0.000001 -0.000004 -56.503800 36.039600 -22.837000 -24.328900 0.000322 -0.000009 1.048160 2.967640 -19.481100 -22.291500 -0.000108 -0.000004 14.979300 5.414470 -3.413610 -2.192480 -6.469440 -0.000000 -171.624000 -13.432900 0.544665 39.081100 -0.000007 -0.000012 -0.255762 0.357753 35.561900 40.985400 -0.000006 -0.000013 -0.690568 5.749310 -70.830500 11.754300 -0.000000 0.000003 -0.000163 -0.001562 -16.636800 -2.192510 6.469440 -0.000001 174.047000 20.839000 -177.635000 -39.081100 -0.002282 -0.040193 -0.243172 0.355806 34.710300 -40.985400 0.000008 0.000006 4.816170 12.416800 -72.225900 -11.754300 -0.000006 -0.000006 -0.001607 -0.023678 -17.535900
0.000000 0.000000 0.000000 0.000000 0.000000 -0.000000 -2.093680 89.962000 -2.343480 89.070100 -2.488530 14.454400 15.735700 0.000005 -0.000001 90.632600 77.120400 -90.372700 8.984550 -0.406207 -0.000000 17.991100 0.302302 0.473149 16.377300 -0.000001 -0.000001 6.530590 -3.092820 1.751800 6.456720 -0.000001 -0.000000 -3.241820 -2.603680 2.746800 12.994200 -0.242716 4.980390 -91.365200 6.369940 -77.876900 5.348090 -0.000007 -0.000001 -56.880200 21.272200 -28.334400 24.328600 0.000019 0.000005 17.305300 19.427000 -43.127900 22.291600 -0.000001 0.000005 13.688200 5.149780 3.948160 12.994500 -0.242716 -4.980390 89.132500 11.077700 -85.494200 -5.348130 -0.000001 -0.000004 -56.419500 36.024600 -22.939200 -24.328900 0.000322 -0.000009 1.041740 2.960330 -19.415000 -22.291500 -0.000108 -0.000004 15.071000 5.416590 -3.484480 -2.192480 -6.469440 -0.000000 -171.659000 -13.409100 0.466448 39.081100 -0.000007 -0.000012 -0.253920 0.355001 35.575200 40.985400 -0.000006 -0.000013 -0.671234 5.743330 -70.798600 11.754300 -0.000000 0.000003 -0.000154 -0.001488 -16.634100 -2.192510 6.469440 -0.000001 174.058000 20.889800 -177.696000 -39.081100 -0.002282 -0.040193 -0.240628 0.352030 34.718200 -40.985400 0.000008 0.000006 4.841200 12.410800 -72.199900 -11.754300 -0.000006 -0.000006 -0.001626 -0.023935 -17.546400
